# xmcd
#
# Track frame offsets: 
#        150
#        9076
#        22094
#        31612
#        54659
#        69586
#        78821
#        95536
#        105763
#        121728
#        137978
#        158193
#        175302
#        188665
#        200328
#        208147
#        220704
#        233327
#        243463
#        254449
#        266668
#        286918
#        303674
#        325199
#        338032
#
# Disc length: 4676 seconds
#
# Revision: 0
# Processed by: cddbd v1.5.2PL0 Copyright (c) Steve Scherf et al.
# Submitted via: ExactAudioCopy v0.99pb5
#
DISCID=51124219
DTITLE=Commander Cody  - Live from Armadillo World HQ 1973 Disc 2
DYEAR=1900
DGENRE=
TTITLE0=Cajun Rag
TTITLE1=Truck Driving Man
TTITLE2=Everybody's Doing It
TTITLE3=What's the Matter Now
TTITLE4=It Should've Been Me
TTITLE5=My Window Faces the South
TTITLE6=Down to Seeds and Stems Again
TTITLE7=Mama Tried
TTITLE8=I Ain't Never
TTITLE9=I Flew Over Our House Last Night
TTITLE10=Oh Mama, Mama
TTITLE11=Hot Rod Lincoln
TTITLE12=Keep on Lovin' Her
TTITLE13=Hard Headed Woman
TTITLE14=Steel Guitar Slide
TTITLE15=Good Rockin' Tonight
TTITLE16=Wine Do Your Stuff
TTITLE17=I'm Coming Home
TTITLE18=Lookin' at the World Through a Windshield
TTITLE19=Diggy Liggy Lo
TTITLE20=Cryin' Time
TTITLE21=Gypsy Fiddle
TTITLE22=Beat Me Daddy Eight to the Bar
TTITLE23=Riot in Cell Block #9
TTITLE24=Don't Let Go
EXTD=
EXTT0=
EXTT1=
EXTT2=
EXTT3=
EXTT4=
EXTT5=
EXTT6=
EXTT7=
EXTT8=
EXTT9=
EXTT10=
EXTT11=
EXTT12=
EXTT13=
EXTT14=
EXTT15=
EXTT16=
EXTT17=
EXTT18=
EXTT19=
EXTT20=
EXTT21=
EXTT22=
EXTT23=
EXTT24=
PLAYORDER=
